<svg xmlns="http://www.w3.org/2000/svg" version="1.1" xmlns:xlink="http://www.w3.org/1999/xlink" xmlns:svgjs="http://svgjs.com/svgjs" width="1000" height="1000"><rect width="1000" height="1000" rx="500" ry="500" fill="#ff9300"></rect><g transform="matrix(37.5,0,0,37.5,31.75,50)"><svg xmlns="http://www.w3.org/2000/svg" version="1.1" xmlns:xlink="http://www.w3.org/1999/xlink" xmlns:svgjs="http://svgjs.com/svgjs" width="24" height="24"><svg xmlns="http://www.w3.org/2000/svg" viewBox="0 0 24 24"><title>currency-btc</title><path d="M17.06 11.57C17.65 10.88 18 10 18 9C18 7.14 16.73 5.57 15 5.13V3H13V5H11V3H9V5H6V7H8V17H6V19H9V21H11V19H13V21H15V19C17.21 19 19 17.21 19 15C19 13.55 18.22 12.27 17.06 11.57M10 7H14C15.1 7 16 7.9 16 9S15.1 11 14 11H10V7M15 17H10V13H15C16.1 13 17 13.9 17 15S16.1 17 15 17Z"></path></svg></svg></g></svg>