<?xml version="1.0" encoding="utf-8"?>
<svg viewBox="0 0 18 18" xmlns="http://www.w3.org/2000/svg">
  <path fill="#F7931A" d="M0 0h18v18H0z" />
  <path
    d="M 12.836 7.94 C 13.002 6.817 12.152000000000001 6.219 10.981 5.812 L 11.361 4.299 L 10.435 4.069 L 10.066 5.545 L 9.328000000000001 5.368 L 9.703000000000001 3.8820000000000006 L 8.778 3.6520000000000006 L 8.398 5.170000000000001 L 7.81 5.031000000000001 L 7.81 5.026000000000001 L 6.532 4.706 L 6.286 5.694000000000001 C 6.286 5.694000000000001 6.97 5.854000000000001 6.959999999999999 5.860000000000001 C 7.333999999999999 5.956000000000001 7.397999999999999 6.202000000000001 7.386999999999999 6.395000000000001 L 6.96 8.128 L 7.056 8.16 L 6.954 8.138 L 6.35 10.561 C 6.3069999999999995 10.673 6.1899999999999995 10.844 5.927 10.775 C 5.938 10.791 5.2589999999999995 10.615 5.2589999999999995 10.615 L 4.7989999999999995 11.668 L 6.002 11.968 L 6.66 12.138 L 6.275 13.673 L 7.2 13.903 L 7.574 12.384 L 8.318 12.577 L 7.938 14.09 L 8.863 14.32 L 9.243 12.785 C 10.82 13.085 12.008000000000001 12.967 12.505 11.539 C 12.906 10.389 12.484 9.732 11.655000000000001 9.293 C 12.259 9.16 12.714 8.758999999999999 12.831000000000001 7.9399999999999995 L 12.836000000000002 7.9399999999999995 L 12.836 7.94 Z"
    fill="#fff" />
  <path
    d="M 11.008000000000001 7.924 C 10.751000000000001 8.967 9.136000000000001 8.438 8.618 8.309000000000001 L 9.078000000000001 6.465000000000001 C 9.601 6.593000000000001 11.280000000000001 6.839 11.008000000000001 7.925000000000001 L 11.008000000000001 7.924 Z"
    fill="#fff" />
  <path
    d="M 10.724 10.903 C 10.441 12.053 8.505 11.427 7.879 11.277000000000001 L 8.387 9.240000000000002 C 9.013 9.400000000000002 11.024000000000001 9.705000000000002 10.724 10.898000000000001 L 10.724 10.903000000000002 L 10.724 10.903 Z"
    fill="#fff" />
</svg>